<svg xmlns="http://www.w3.org/2000/svg" viewBox="0 0 98.22 32.69"><defs><style>.cls-1{font-size:16.58px;font-family:ITCAvantGardeStd-Bold, ITC Avant Garde Gothic Std;font-weight:700;}.cls-1,.cls-5{fill:#d5dcd9;}.cls-2{letter-spacing:-0.02em;}.cls-3{letter-spacing:0em;}.cls-4{letter-spacing:0.01em;}</style></defs><g id="Capa_2" data-name="Capa 2"><g id="Capa_1-2" data-name="Capa 1"><text class="cls-1" transform="translate(0 13.76) scale(1.01 1)">Consul<tspan class="cls-2" x="58.84" y="0">t</tspan><tspan class="cls-3" x="64.34" y="0">o</tspan><tspan class="cls-4" x="75.38" y="0">r</tspan><tspan x="81.57" y="0">io</tspan></text><line class="cls-5" x1="6.07" y1="17.86" x2="92.14" y2="17.86"/><path class="cls-5" d="M11,29.87a1.37,1.37,0,0,1-.1-.41c-.07-.56-.11-1-.14-1.25,0-.72,0-1.44,0-2.15,0-.94,0-1.82.13-2.65a.25.25,0,0,1,0-.1,1.17,1.17,0,0,0-.12.25,12,12,0,0,1-1,1.84,2,2,0,0,1-.43.5.69.69,0,0,1-.46.18l-.17,0a.53.53,0,0,1-.27-.17,1,1,0,0,1-.13-.31,1.42,1.42,0,0,1,0-.27,1.7,1.7,0,0,1,.05-.41,3.67,3.67,0,0,1,1-1.82,2.26,2.26,0,0,1,1-.65.32.32,0,0,0,.25-.25c.15-.53.32-1.17.51-1.91s.32-1.3.4-1.68q0-.16.09-.3l.08-.22a.37.37,0,0,1,.08-.18.27.27,0,0,1,.23-.11c.21,0,.32.08.32.25a1,1,0,0,1,0,.12c-.11.48-.19.88-.25,1.21s-.12.73-.18,1.19-.11.75-.17,1.12a30.69,30.69,0,0,0-.37,3.14c0,.56,0,1,0,1.18a24.8,24.8,0,0,0,.23,3.34.83.83,0,0,0,.18.45.17.17,0,0,1,0,.13.19.19,0,0,1-.08.14.48.48,0,0,1-.22.05.42.42,0,0,1-.37-.23M9.5,24.8a6.9,6.9,0,0,0,.54-1,1.75,1.75,0,0,0,.18-.75,2.29,2.29,0,0,0-.94,1,2.51,2.51,0,0,0-.4,1.29,1.74,1.74,0,0,0,0,.29,3.74,3.74,0,0,0,.6-.75"/><path class="cls-5" d="M13.59,26.5h-.24a1,1,0,0,1-.66-.25,1.26,1.26,0,0,1-.42-.66,1.89,1.89,0,0,1-.08-.53,3.88,3.88,0,0,1,.17-1,2.27,2.27,0,0,1,.46-.88,1.92,1.92,0,0,1,.51-.47.84.84,0,0,1,.44-.14.61.61,0,0,1,.45.16.61.61,0,0,1,.17.43.74.74,0,0,1,0,.19.76.76,0,0,1-.1.25,2.67,2.67,0,0,1-1.39,1.3.25.25,0,0,0-.19.25,1.33,1.33,0,0,0,.13.55.5.5,0,0,0,.47.37.56.56,0,0,0,.23,0,.94.94,0,0,0,.33-.2A6.22,6.22,0,0,0,15,24.52h0l.21-.3a.35.35,0,0,1,.23-.11.29.29,0,0,1,.21.06.18.18,0,0,1,.07.15.36.36,0,0,1-.06.2l-.27.37v0s0,0-.05.05v0a7.15,7.15,0,0,1-1.09,1.14,2,2,0,0,1-.48.31l-.2.08M13,24.28a2.45,2.45,0,0,0,.85-1l.06-.18v0a.09.09,0,0,0,0-.09.1.1,0,0,0-.09,0l-.17.08a2.94,2.94,0,0,0-.8,1.29.7.7,0,0,0,.2-.12"/><path class="cls-5" d="M20.53,26.49h-.24a1,1,0,0,1-.67-.25,1.28,1.28,0,0,1-.41-.67,2,2,0,0,1-.08-.54A4.1,4.1,0,0,1,19.3,24a2.27,2.27,0,0,1,.46-.9,2.08,2.08,0,0,1,.5-.48,1,1,0,0,1,.45-.15.64.64,0,0,1,.45.17.6.6,0,0,1,.16.44s0,.11,0,.19a.76.76,0,0,1-.1.25,2.73,2.73,0,0,1-1.4,1.34.25.25,0,0,0-.18.25,1.3,1.3,0,0,0,.13.56c.1.26.25.39.46.38a.47.47,0,0,0,.24-.05.94.94,0,0,0,.33-.2A6.67,6.67,0,0,0,22,24.45h0l.21-.3a.33.33,0,0,1,.23-.11.33.33,0,0,1,.21,0,.2.2,0,0,1,.07.16.42.42,0,0,1-.06.21l-.27.37v0s0,0-.05.06,0,0,0,0a7.26,7.26,0,0,1-1.09,1.18,1.76,1.76,0,0,1-.49.31l-.19.09m-.63-2.26a2.61,2.61,0,0,0,.85-1l.06-.19v0a.11.11,0,0,0,0-.1.18.18,0,0,0-.09,0L20.5,23a2.91,2.91,0,0,0-.8,1.32.87.87,0,0,0,.2-.12"/><path class="cls-5" d="M22.91,26.74h-.06a.5.5,0,0,1-.36-.23.56.56,0,0,1-.07-.3.74.74,0,0,1,0-.23.78.78,0,0,1,.2-.35,3,3,0,0,1,.5-.53l.13-.09h0l.1-.08.05-.05-.07-.06a1.46,1.46,0,0,0-.28-.22l-.39-.25h0l-.12-.07L22.2,24a.77.77,0,0,1-.25-.26.53.53,0,0,1-.09-.3A.64.64,0,0,1,22,23.1a1.73,1.73,0,0,1,.29-.23,3.83,3.83,0,0,1,1.37-.46h.13a.86.86,0,0,1,.28,0,.41.41,0,0,1,.33.44.61.61,0,0,1-.06.28,1,1,0,0,1-.18.22.25.25,0,0,1-.18.08.29.29,0,0,1-.21-.1.26.26,0,0,1-.09-.21.4.4,0,0,1,.07-.21l0,0h0s0,0,0,0a2.69,2.69,0,0,0-1.21.38,1.33,1.33,0,0,0-.17.14.07.07,0,0,0,0,.06.18.18,0,0,0,0,.08.45.45,0,0,0,.19.16l.29.16h0l.25.15a4.48,4.48,0,0,1,.38.26,1.61,1.61,0,0,1,.34.29l0,0,.05,0q.27-.18.81-.48a3.65,3.65,0,0,1,.67-.31h.1a.39.39,0,0,1,.26.09.26.26,0,0,1,.09.3.17.17,0,0,1-.11.15.19.19,0,0,1-.17,0,.1.1,0,0,0-.08,0,.48.48,0,0,0-.18.05h0a4.93,4.93,0,0,0-.91.47l-.2.13-.07,0a0,0,0,0,0,0,0s0,0,0,.08a1.05,1.05,0,0,1,0,.31,1.2,1.2,0,0,1-.32.83,1.14,1.14,0,0,1-.85.43Zm.29-.52.23-.24a.88.88,0,0,0,.25-.51v-.14h0a2.94,2.94,0,0,0-.57.52.86.86,0,0,0-.16.29s0,.06,0,.06h.27"/><path class="cls-5" d="M25.93,32.35a2.47,2.47,0,0,1-.13-.52q0-.45-.06-.63c-.06-.65-.09-1.51-.08-2.56,0-.53,0-.92,0-1.18,0-.45,0-.89,0-1.33v-.07a.23.23,0,0,0,0-.13h0l-.15,0-.05,0-.17,0c-.17,0-.26-.05-.29-.17V25.8c0-.07,0-.12.12-.17l.36-.18.11-.05c.11-.07.16-.14.16-.23,0-.26,0-.52,0-.78V23.27a.1.1,0,0,0,0-.1h0a.41.41,0,0,0-.2.09l0,.07,0,.05a.35.35,0,0,1,0,.12.16.16,0,0,1,0,.11.24.24,0,0,1-.2.09,1.25,1.25,0,0,1-.51-.09q-.22-.08-.24-.21s0,0,0,0a.29.29,0,0,1,.16-.24,1.6,1.6,0,0,1,.68-.38c.16,0,.26-.11.29-.21a1.07,1.07,0,0,0,.06-.41.13.13,0,0,1,0-.06.71.71,0,0,1,.05-.29.42.42,0,0,1,.2-.23.18.18,0,0,1,.1,0,.19.19,0,0,1,.12,0,.32.32,0,0,1,.21.18s0,0,0,.08a.25.25,0,0,1-.05.16,0,0,0,0,0,0,0,.49.49,0,0,0-.06.25q0,.11,0,.12a.09.09,0,0,0,.08,0l.11,0h0l0,0a4.35,4.35,0,0,1,1.13-.12,1.44,1.44,0,0,1,.39.06.92.92,0,0,1,.41.25.59.59,0,0,1,.15.4.54.54,0,0,1,0,.22,2.08,2.08,0,0,1-.34.66,5.8,5.8,0,0,1-1.15,1.1,6.38,6.38,0,0,1-.7.48.46.46,0,0,0-.28.43v.61a2.63,2.63,0,0,0,0,.31v.86c0,.46,0,1.17,0,2.13,0,.67.06,1.18.1,1.55,0,.12.05.32.11.61a.62.62,0,0,0,.15.38.33.33,0,0,1,.1.18s0,.08-.08.15a.34.34,0,0,1-.22.1.74.74,0,0,1-.18,0,.44.44,0,0,1-.24-.3m.83-7.68.29-.22a0,0,0,0,1,0,0,4.44,4.44,0,0,0,.9-1,1.52,1.52,0,0,0,.2-.51.07.07,0,0,0,0-.05c0-.14-.08-.22-.24-.25a1,1,0,0,0-.27,0h0a4.92,4.92,0,0,0-1.18.2.48.48,0,0,0-.16.09.34.34,0,0,0-.06.16c0,.29,0,.5,0,.64s0,.32,0,.48V25a2.91,2.91,0,0,0,.54-.34"/><path class="cls-5" d="M30.31,26.39h-.23a1,1,0,0,1-.67-.25,1.32,1.32,0,0,1-.42-.68,1.79,1.79,0,0,1-.07-.56,3.87,3.87,0,0,1,.16-1.08,2.41,2.41,0,0,1,.47-.93,1.8,1.8,0,0,1,.5-.49.82.82,0,0,1,.45-.16.53.53,0,0,1,.44.17.6.6,0,0,1,.17.44.88.88,0,0,1,0,.2,1.07,1.07,0,0,1-.09.26,2.81,2.81,0,0,1-1.4,1.39.26.26,0,0,0-.19.26,1.42,1.42,0,0,0,.13.58.51.51,0,0,0,.47.39.61.61,0,0,0,.24-.06,1,1,0,0,0,.33-.21,7.15,7.15,0,0,0,1.17-1.37s0,0,0,0A3.46,3.46,0,0,0,32,24a.29.29,0,0,1,.22-.12.34.34,0,0,1,.22.06.24.24,0,0,1,.07.16.4.4,0,0,1-.07.21c-.09.13-.18.26-.26.39v0s0,0,0,.06h0A7.89,7.89,0,0,1,31,26a2.09,2.09,0,0,1-.49.33l-.2.09m-.63-2.32a2.51,2.51,0,0,0,.85-1,1.34,1.34,0,0,1,.07-.18v0a.12.12,0,0,0-.06-.1s0,0-.09,0l-.17.09a2.94,2.94,0,0,0-.79,1.36,1.22,1.22,0,0,0,.19-.13"/><path class="cls-5" d="M32.86,26.66a.71.71,0,0,1-.63-.4,2.69,2.69,0,0,1-.3-1.08,5.37,5.37,0,0,1,.16-1.43,4.94,4.94,0,0,1,.58-1.36,1,1,0,0,1,.25-.29.48.48,0,0,1,.29-.12,1,1,0,0,1,.25.05.56.56,0,0,1,.21.22.54.54,0,0,1,.09.27.23.23,0,0,1-.09.19.23.23,0,0,1-.2.05.41.41,0,0,1-.16-.05.16.16,0,0,0-.09,0s-.07,0-.1.08l-.08.13A4.63,4.63,0,0,0,32.5,25a2.22,2.22,0,0,0,.2,1,.19.19,0,0,0,.18.11.38.38,0,0,0,.19-.06l.47-.51a13.07,13.07,0,0,0,.88-1.16c.28-.42.43-.65.46-.68a.37.37,0,0,1,.28-.17.32.32,0,0,1,.2.06.19.19,0,0,1,.07.16.23.23,0,0,1,0,.13l-.06.11c-.29.44-.49.74-.61.9s-.32.42-.64.8a5.27,5.27,0,0,1-.49.53,1.36,1.36,0,0,1-.25.22.82.82,0,0,1-.49.19"/><path class="cls-5" d="M35.57,26.38a.58.58,0,0,1-.57-.44.78.78,0,0,1,0-.18c0-.07,0-.12,0-.17a3.83,3.83,0,0,1,0-.59,7.56,7.56,0,0,1,0-.83c0-.2.07-.5.14-.91a2.91,2.91,0,0,0,0-.5.75.75,0,0,1,.28-.53.26.26,0,0,1,.15-.07.29.29,0,0,1,.17.05.22.22,0,0,1,.13.3,7,7,0,0,0-.25,1.07,8.93,8.93,0,0,0-.16,1.67,1.23,1.23,0,0,0,.14.63.53.53,0,0,0,.2-.09l.19-.18a14.12,14.12,0,0,0,1.34-1.52,3,3,0,0,1,.25-.32.31.31,0,0,1,.24-.12.39.39,0,0,1,.23.06.22.22,0,0,1,.08.18.32.32,0,0,1-.06.18l-.36.44a14.62,14.62,0,0,1-1.21,1.36,2,2,0,0,1-.49.39.9.9,0,0,1-.41.12m.27-5.68a.24.24,0,0,1-.1-.18.23.23,0,0,1,.08-.16.29.29,0,0,1,.19-.08.31.31,0,0,1,.23.08.28.28,0,0,1,.1.17.25.25,0,0,1-.08.18.29.29,0,0,1-.2.07.33.33,0,0,1-.22-.08"/><path class="cls-5" d="M40.59,27a.53.53,0,0,1-.54-.36,2.81,2.81,0,0,1-.19-.88c0-.55-.09-1.31-.11-2.26a1.4,1.4,0,0,0-.18.32c0,.13-.09.25-.13.37a7,7,0,0,1-.52,1.28,1.85,1.85,0,0,1-.3.44.58.58,0,0,1-.4.17.49.49,0,0,1-.46-.27.89.89,0,0,1-.11-.26c0-.11,0-.17,0-.2a2,2,0,0,1,0-.43,4.49,4.49,0,0,1,.25-1.37,4.14,4.14,0,0,1,.29-.72,2.4,2.4,0,0,1,.32-.44.78.78,0,0,1,.54-.25,1.16,1.16,0,0,1,.33.06l.1,0a.22.22,0,0,0,.09-.1.39.39,0,0,1,0-.11s0-.09,0-.14a.47.47,0,0,1,.06-.15.34.34,0,0,1,.31-.25c.19,0,.3.1.34.32s0,1.06,0,2.7c0,.23,0,.38,0,.45a5.79,5.79,0,0,0,.15,1.31.54.54,0,0,0,.09.2.28.28,0,0,0,.2,0h0a.28.28,0,0,1,.17.07.17.17,0,0,1,.05.15c0,.11-.07.2-.21.24a.6.6,0,0,1-.22,0m-2.22-1.67.07-.11a11,11,0,0,0,.61-1.68,1.45,1.45,0,0,0,.05-.43,2,2,0,0,0,0-.31c0-.08,0-.13-.1-.13h0s-.07,0-.11.08a2.08,2.08,0,0,0-.21.31A3.88,3.88,0,0,0,38.15,25a1.94,1.94,0,0,0,0,.27c0,.07,0,.12,0,.16a.19.19,0,0,0,.1.1.29.29,0,0,0,.1-.12"/><path class="cls-5" d="M41.78,31.57a.29.29,0,0,1-.3-.23,1,1,0,0,1,0-.26,1.94,1.94,0,0,1,0-.22c-.06-1.15-.09-2.45-.08-3.91,0-.84,0-1.79.09-2.87l.06-1.52c0-1.23.12-2.38.24-3.43A17.56,17.56,0,0,1,42.07,17a2.84,2.84,0,0,1,.22-.63.42.42,0,0,1,.39-.27.31.31,0,0,1,.26.09.4.4,0,0,1,.15.27,2.52,2.52,0,0,1,.07.66,25.11,25.11,0,0,1-.61,4.84s0,.09,0,.13a.28.28,0,0,1-.11.19.5.5,0,0,1-.22.09.2.2,0,0,0-.13.14.94.94,0,0,0-.07.3c0,.37,0,.65,0,.83,0,1,0,1.69,0,2.15s0,1.2,0,2.17c0,.73,0,1.27,0,1.63,0,.2,0,.51,0,.92a.71.71,0,0,0,.09.43.6.6,0,0,1,.05.24c0,.25-.1.38-.29.41h-.06m.8-14.08a6.24,6.24,0,0,0-.35,1.5A16,16,0,0,0,42,21a2.29,2.29,0,0,0,0,.39,23.19,23.19,0,0,0,.51-3.85"/><path class="cls-5" d="M43.6,26.24a.61.61,0,0,1-.58-.45c0-.05,0-.11,0-.19s0-.13,0-.17a3.58,3.58,0,0,1,0-.61c0-.28,0-.56,0-.85s.06-.51.14-.92c0-.11,0-.28,0-.51a.88.88,0,0,1,.28-.55.33.33,0,0,1,.16-.07.29.29,0,0,1,.17,0,.22.22,0,0,1,.13.3,7.56,7.56,0,0,0-.25,1.1,9.38,9.38,0,0,0-.16,1.71,1.31,1.31,0,0,0,.14.65.42.42,0,0,0,.2-.1,1.51,1.51,0,0,0,.18-.18,12.82,12.82,0,0,0,1.35-1.56,2.85,2.85,0,0,1,.25-.33.31.31,0,0,1,.24-.12.33.33,0,0,1,.23.06.26.26,0,0,1,.08.19.27.27,0,0,1-.07.18l-.35.45a13.78,13.78,0,0,1-1.22,1.39,2.07,2.07,0,0,1-.48.4.92.92,0,0,1-.41.13m.27-5.81a.26.26,0,0,1-.11-.19.21.21,0,0,1,.09-.16A.29.29,0,0,1,44,20a.28.28,0,0,1,.22.07.29.29,0,0,1,.11.19.22.22,0,0,1-.09.17.29.29,0,0,1-.19.08.32.32,0,0,1-.22-.08"/><path class="cls-5" d="M48.1,29.83a1.67,1.67,0,0,1-.1-.45c-.07-.62-.11-1.09-.14-1.39,0-.8,0-1.6,0-2.39,0-1,0-2,.13-2.94a.35.35,0,0,1,0-.12,1,1,0,0,0-.12.29,13.93,13.93,0,0,1-1,2.06,2.63,2.63,0,0,1-.43.57.69.69,0,0,1-.46.22l-.17,0a.44.44,0,0,1-.27-.18.81.81,0,0,1-.13-.34,1.78,1.78,0,0,1,0-.29,2.05,2.05,0,0,1,.06-.46,4.39,4.39,0,0,1,1-2.05,2.27,2.27,0,0,1,1-.75.34.34,0,0,0,.25-.29q.23-.88.51-2.13c.19-.83.32-1.45.4-1.87,0-.13.06-.25.09-.34a2,2,0,0,0,.07-.25,1.19,1.19,0,0,1,.08-.2.32.32,0,0,1,.24-.13c.21,0,.32.08.31.28a.45.45,0,0,1,0,.13c-.11.53-.19,1-.25,1.34s-.12.82-.18,1.34l-.17,1.24a35,35,0,0,0-.37,3.5c0,.62,0,1.06,0,1.31a28.35,28.35,0,0,0,.23,3.7.93.93,0,0,0,.18.5.24.24,0,0,1,.05.14.21.21,0,0,1-.09.16.33.33,0,0,1-.21.06.39.39,0,0,1-.37-.24m-1.53-5.6a6.85,6.85,0,0,0,.55-1.17,1.92,1.92,0,0,0,.17-.84,2.62,2.62,0,0,0-.93,1.09A3.27,3.27,0,0,0,46,24.76a2.36,2.36,0,0,0,0,.32,4.15,4.15,0,0,0,.59-.85"/><path class="cls-5" d="M52.37,26.84a.55.55,0,0,1-.54-.37,3.09,3.09,0,0,1-.19-.91q-.07-.87-.12-2.34a1.2,1.2,0,0,0-.17.34,2.72,2.72,0,0,0-.13.37,7.1,7.1,0,0,1-.52,1.33,1.53,1.53,0,0,1-.31.45.52.52,0,0,1-.85-.1.73.73,0,0,1-.11-.27c0-.11,0-.18,0-.21a2.12,2.12,0,0,1,0-.44,3.81,3.81,0,0,1,.09-.82,4.74,4.74,0,0,1,.16-.6,4.4,4.4,0,0,1,.29-.74,2.21,2.21,0,0,1,.32-.45.73.73,0,0,1,.54-.26.81.81,0,0,1,.32.06l.11,0a.15.15,0,0,0,.08-.11.64.64,0,0,1,0-.1c0-.05,0-.1,0-.15l.06-.16a.41.41,0,0,1,.32-.26c.18,0,.3.11.34.33s0,1.1,0,2.79c0,.25,0,.4,0,.47a6.07,6.07,0,0,0,.15,1.35.37.37,0,0,0,.09.2s.1.06.2,0h0a.2.2,0,0,1,.16.07.17.17,0,0,1,.06.15.26.26,0,0,1-.21.26.93.93,0,0,1-.22,0m-2.22-1.73a.72.72,0,0,1,.07-.11,11.54,11.54,0,0,0,.61-1.74,2,2,0,0,0,.05-.44,2.14,2.14,0,0,0,0-.32c0-.08,0-.13-.1-.14h0a.18.18,0,0,0-.11.09,2.8,2.8,0,0,0-.21.31,4.15,4.15,0,0,0-.48,1.93,2,2,0,0,0,0,.28.71.71,0,0,0,0,.16.22.22,0,0,0,.09.11.45.45,0,0,0,.11-.13"/><path class="cls-5" d="M55.7,29.76a1.48,1.48,0,0,1-.11-.46c-.06-.64-.11-1.11-.13-1.42,0-.82-.06-1.63-.05-2.44,0-1.06,0-2.06.12-3a.31.31,0,0,1,0-.11,2.85,2.85,0,0,0-.12.29,12.93,12.93,0,0,1-1,2.11,2.64,2.64,0,0,1-.42.58.71.71,0,0,1-.46.22l-.17,0a.43.43,0,0,1-.28-.18A1,1,0,0,1,53,25c0-.12,0-.22,0-.3a2.26,2.26,0,0,1,0-.47,4.64,4.64,0,0,1,1-2.09,2.28,2.28,0,0,1,1-.76.35.35,0,0,0,.25-.3c.15-.6.33-1.32.51-2.17s.33-1.48.41-1.91a2.53,2.53,0,0,1,.09-.35c0-.09.05-.18.07-.25a.7.7,0,0,1,.08-.2.27.27,0,0,1,.24-.13c.2,0,.31.08.31.28s0,.1,0,.13c-.11.54-.2,1-.26,1.38s-.12.82-.18,1.36-.11.84-.17,1.26c-.21,1.5-.33,2.69-.37,3.57,0,.64,0,1.08,0,1.34a29.58,29.58,0,0,0,.22,3.78.93.93,0,0,0,.18.5.23.23,0,0,1,0,.15.19.19,0,0,1-.08.16.38.38,0,0,1-.22.07.39.39,0,0,1-.36-.25M54.17,24a8.29,8.29,0,0,0,.54-1.19,1.9,1.9,0,0,0,.18-.86A2.78,2.78,0,0,0,54,23.1a3.4,3.4,0,0,0-.4,1.48c0,.08,0,.19,0,.33a4,4,0,0,0,.6-.87"/><path class="cls-5" d="M58.26,25.87H58a1,1,0,0,1-.67-.27,1.47,1.47,0,0,1-.42-.73,2.6,2.6,0,0,1-.07-.61A5,5,0,0,1,57,23.11a2.71,2.71,0,0,1,.47-1,1.94,1.94,0,0,1,.5-.53.86.86,0,0,1,.45-.18.55.55,0,0,1,.44.19.69.69,0,0,1,.17.48,1,1,0,0,1,0,.21,1.31,1.31,0,0,1-.09.28,2.91,2.91,0,0,1-1.4,1.5.3.3,0,0,0-.19.29,1.86,1.86,0,0,0,.13.62c.11.28.26.42.47.41a.6.6,0,0,0,.24-.05,1.32,1.32,0,0,0,.33-.23,7.53,7.53,0,0,0,1.17-1.49h0l.21-.34a.29.29,0,0,1,.22-.12.25.25,0,0,1,.22.06.21.21,0,0,1,.07.17.39.39,0,0,1-.07.23c-.09.14-.18.28-.26.42h0a.14.14,0,0,0-.06.07h0A8,8,0,0,1,59,25.42a2.39,2.39,0,0,1-.49.36l-.2.09m-.62-2.5a2.76,2.76,0,0,0,.84-1.1c0-.06.05-.13.07-.2v0a.09.09,0,0,0-.15-.09l-.17.1a3.31,3.31,0,0,0-.79,1.47,1.15,1.15,0,0,0,.2-.14"/><path class="cls-5" d="M60.65,26.13h-.07a.5.5,0,0,1-.35-.25.67.67,0,0,1-.08-.33,1.51,1.51,0,0,1,0-.26,1.2,1.2,0,0,1,.2-.39,3.17,3.17,0,0,1,.51-.59L61,24.2h0l.09-.08s0,0,0-.05L61.12,24a2.08,2.08,0,0,0-.29-.25l-.39-.27h0l-.12-.08a4.17,4.17,0,0,1-.38-.27.88.88,0,0,1-.25-.29.58.58,0,0,1-.09-.33.81.81,0,0,1,.14-.4,1.52,1.52,0,0,1,.29-.27,3.51,3.51,0,0,1,1.36-.52h.13a1.27,1.27,0,0,1,.28,0,.41.41,0,0,1,.31.3.5.5,0,0,1,0,.19.62.62,0,0,1-.07.31,1,1,0,0,1-.17.25.25.25,0,0,1-.18.08.28.28,0,0,1-.21-.1.32.32,0,0,1-.09-.24.6.6,0,0,1,.06-.23l0,0h0l0,0a2.46,2.46,0,0,0-1.21.43l-.17.15s0,.05,0,.07a.31.31,0,0,0,0,.09.5.5,0,0,0,.2.17l.29.18h0a2,2,0,0,0,.25.17c.07.05.2.14.37.28a1.33,1.33,0,0,1,.34.32s0,0,0,0a0,0,0,0,0,0,0c.19-.14.46-.32.81-.53a3,3,0,0,1,.68-.35h.09a.35.35,0,0,1,.26.11.27.27,0,0,1,.09.33.18.18,0,0,1-.1.17.17.17,0,0,1-.17,0h-.08a.55.55,0,0,0-.19.06h0a5.09,5.09,0,0,0-.91.53l-.19.14-.07.06v.12a1.32,1.32,0,0,1,0,.34,1.47,1.47,0,0,1-.32.92,1.14,1.14,0,0,1-.86.49h0m.29-.58.22-.27a1,1,0,0,0,.26-.56v-.16h0a3.14,3.14,0,0,0-.57.59,1.31,1.31,0,0,0-.16.31s0,.07,0,.07,0,0,.06,0h.22"/><path class="cls-5" d="M67.62,28.59a20.69,20.69,0,0,1-.35-2.75,2.19,2.19,0,0,1,0-.29l-.21.14-.11,0a.27.27,0,0,1-.26-.18.36.36,0,0,0,0-.1.25.25,0,0,1,0-.14.21.21,0,0,1,0-.08,1.29,1.29,0,0,1,.34-.28.15.15,0,0,0,.08-.1.79.79,0,0,0,0-.17c0-.25,0-.44,0-.56V24a.4.4,0,0,0-.13-.34.51.51,0,0,1-.18-.46,1.67,1.67,0,0,1,.36-1c0-.38.07-1,.14-1.78.14-1.44.33-3,.57-4.66a1.51,1.51,0,0,1,.07-.34.28.28,0,0,1,.12-.16.28.28,0,0,1,.19-.07l.12,0c.17,0,.24.14.19.31a10.89,10.89,0,0,0-.22,1.11q-.09.54-.21,1.53l-.12,1c-.1.82-.18,1.63-.25,2.45a2.44,2.44,0,0,1,1.13-.5l.19,0a1,1,0,0,1,.4.09A.75.75,0,0,1,70,22a2,2,0,0,1-.08.51,3.81,3.81,0,0,1-.59,1.15,6.69,6.69,0,0,1-1.38,1.48l-.06.05-.09.06a12.15,12.15,0,0,0,.44,3.21,1.4,1.4,0,0,1,.09.34.32.32,0,0,1-.31.32c-.18,0-.31-.16-.37-.48m.25-4.12.1,0,.12-.11,0,0a6.26,6.26,0,0,0,.72-.84,4,4,0,0,0,.57-1c.06-.25.1-.42.11-.51v0a.24.24,0,0,0-.27-.3h0l-.13,0a2.31,2.31,0,0,0-1.2.68.65.65,0,0,0-.1.19c0,.37,0,.64,0,.82v1a.14.14,0,0,0,.06.08l.06,0"/><path class="cls-5" d="M71.47,25.68h-.24a.89.89,0,0,1-.66-.28,1.53,1.53,0,0,1-.42-.76,2.72,2.72,0,0,1-.08-.63,5.25,5.25,0,0,1,.17-1.2,2.73,2.73,0,0,1,.46-1,2.05,2.05,0,0,1,.51-.55.74.74,0,0,1,.44-.17.54.54,0,0,1,.45.19.7.7,0,0,1,.16.5c0,.05,0,.13,0,.22a1,1,0,0,1-.1.29,3,3,0,0,1-1.39,1.54.29.29,0,0,0-.19.29,1.79,1.79,0,0,0,.13.65c.1.29.26.43.47.43a.46.46,0,0,0,.23-.06.74.74,0,0,0,.33-.24,7.14,7.14,0,0,0,1.18-1.52h0l.21-.35a.32.32,0,0,1,.23-.13.27.27,0,0,1,.21.07.19.19,0,0,1,.07.18.53.53,0,0,1-.06.24l-.27.43h0s0,0,0,.07h0a8.08,8.08,0,0,1-1.09,1.36,1.65,1.65,0,0,1-.48.36l-.2.1m-.63-2.59A2.89,2.89,0,0,0,71.69,22l.06-.21v0a.12.12,0,0,0,0-.11.1.1,0,0,0-.09,0l-.17.1a3.57,3.57,0,0,0-.8,1.52.69.69,0,0,0,.2-.14"/><path class="cls-5" d="M73.75,28.57a21.54,21.54,0,0,1-.35-2.8,2.19,2.19,0,0,1,0-.29,1.08,1.08,0,0,0-.21.14l-.11,0a.27.27,0,0,1-.26-.18l0-.11a.37.37,0,0,1,0-.14l.06-.08a1.29,1.29,0,0,1,.34-.28.18.18,0,0,0,.08-.11.81.81,0,0,0,0-.17c0-.25,0-.44,0-.57V24a.41.41,0,0,0-.13-.35.52.52,0,0,1-.18-.46,1.73,1.73,0,0,1,.36-1c0-.37.06-1,.14-1.8.14-1.46.33-3,.56-4.73a1.63,1.63,0,0,1,.07-.35.4.4,0,0,1,.13-.16.32.32,0,0,1,.19-.07l.12,0a.22.22,0,0,1,.19.31c-.1.38-.17.75-.23,1.12s-.12.89-.2,1.56c0,.32-.09.65-.13,1-.09.83-.17,1.66-.25,2.49A2.44,2.44,0,0,1,75.1,21l.2,0a1,1,0,0,1,.39.1.75.75,0,0,1,.4.77,1.69,1.69,0,0,1-.08.52,3.6,3.6,0,0,1-.58,1.16A6.83,6.83,0,0,1,74,25l-.05,0-.09.07a12.6,12.6,0,0,0,.44,3.26,1.43,1.43,0,0,1,.09.35.3.3,0,0,1-.1.23.33.33,0,0,1-.22.09c-.18,0-.3-.17-.36-.49M74,24.38l.1,0,.12-.11h0a5.86,5.86,0,0,0,.73-.86,4.93,4.93,0,0,0,.57-1c.06-.26.1-.43.11-.52v0a.45.45,0,0,0,0-.22.43.43,0,0,0-.23-.08h0l-.13,0a2.31,2.31,0,0,0-1.2.68.84.84,0,0,0-.11.2c0,.37,0,.64,0,.83v1.05a.13.13,0,0,0,.05.09l.07,0"/><path class="cls-5" d="M76.89,25.72c-.27,0-.46-.16-.58-.5a.88.88,0,0,1,0-.2c0-.08,0-.14,0-.18s0-.32,0-.67,0-.62.05-.92.06-.56.13-1a3.78,3.78,0,0,0,0-.56.92.92,0,0,1,.28-.59.21.21,0,0,1,.16-.07.23.23,0,0,1,.17.05.27.27,0,0,1,.13.33,9,9,0,0,0-.26,1.19,11,11,0,0,0-.15,1.86,1.44,1.44,0,0,0,.14.72.63.63,0,0,0,.2-.1l.18-.2a14.17,14.17,0,0,0,1.35-1.68,2.41,2.41,0,0,1,.25-.35.3.3,0,0,1,.24-.13.31.31,0,0,1,.23.08.28.28,0,0,1,.08.2.3.3,0,0,1-.07.19l-.35.49a15.42,15.42,0,0,1-1.22,1.49,1.86,1.86,0,0,1-.49.43.78.78,0,0,1-.4.13m.27-6.33a.28.28,0,0,1-.11-.21.22.22,0,0,1,.09-.17.25.25,0,0,1,.19-.08.29.29,0,0,1,.22.08.37.37,0,0,1,.11.2.27.27,0,0,1-.09.2.36.36,0,0,1-.19.08.34.34,0,0,1-.22-.1"/><path class="cls-5" d="M79.48,28.58a22,22,0,0,1-.35-2.84,2.19,2.19,0,0,1,0-.29.73.73,0,0,0-.21.14H78.8a.27.27,0,0,1-.26-.18.36.36,0,0,1,0-.11.25.25,0,0,1,0-.14c0-.05,0-.08,0-.08A1.52,1.52,0,0,1,79,24.8a.19.19,0,0,0,.08-.1.87.87,0,0,0,0-.18c0-.25,0-.44,0-.57v-.06a.39.39,0,0,0-.13-.35.53.53,0,0,1-.18-.47,1.76,1.76,0,0,1,.36-1c0-.38.07-1,.14-1.83.14-1.48.33-3.08.57-4.79a1.63,1.63,0,0,1,.06-.35.37.37,0,0,1,.13-.17.32.32,0,0,1,.19-.07l.12,0a.23.23,0,0,1,.19.32c-.1.39-.17.76-.23,1.14s-.12.89-.2,1.57l-.13,1c-.09.84-.17,1.68-.25,2.53a2.36,2.36,0,0,1,1.13-.51l.2,0a1,1,0,0,1,.39.09.81.81,0,0,1,.41.79,1.72,1.72,0,0,1-.09.52,3.69,3.69,0,0,1-.58,1.18A6.86,6.86,0,0,1,79.78,25l-.06,0a.71.71,0,0,1-.09.07,12.93,12.93,0,0,0,.44,3.31,1.47,1.47,0,0,1,.09.36.32.32,0,0,1-.31.32c-.19,0-.31-.17-.37-.5m.25-4.24.1,0,.12-.12a0,0,0,0,0,0,0,5.86,5.86,0,0,0,.73-.86,5,5,0,0,0,.57-1.05c.06-.26.1-.43.11-.53v0a.49.49,0,0,0-.05-.23.43.43,0,0,0-.23-.08h0l-.13,0a2.24,2.24,0,0,0-1.2.68.73.73,0,0,0-.1.2c0,.38,0,.66,0,.85v1.06c0,.05,0,.08,0,.09l.07,0"/><path class="cls-5" d="M82.38,31.6a.31.31,0,0,1-.3-.26,1.16,1.16,0,0,1,0-.29v-.24q-.11-1.93-.09-4.35c0-.93,0-2,.09-3.19l.06-1.69q.06-2.05.24-3.81a21.21,21.21,0,0,1,.33-2.37,2.73,2.73,0,0,1,.23-.7.42.42,0,0,1,.38-.29.34.34,0,0,1,.27.1.69.69,0,0,1,.15.31,3.88,3.88,0,0,1,.06.74,29.78,29.78,0,0,1-.61,5.36.57.57,0,0,1,0,.14.35.35,0,0,1-.1.21.61.61,0,0,1-.23.09s-.09.07-.13.16a1.14,1.14,0,0,0-.07.33c0,.41,0,.72,0,.92,0,1.07,0,1.87,0,2.39s0,1.33,0,2.41c0,.81,0,1.42,0,1.81,0,.23,0,.57,0,1a1.16,1.16,0,0,0,.09.49.68.68,0,0,1,0,.27c0,.27-.1.42-.29.44h-.05M83.17,16a7.19,7.19,0,0,0-.34,1.67,15.51,15.51,0,0,0-.19,2.17,3.1,3.1,0,0,0,0,.44A26.15,26.15,0,0,0,83.17,16"/><path class="cls-5" d="M84.9,25.64h-.24a1,1,0,0,1-.66-.29,1.71,1.71,0,0,1-.42-.8,2.47,2.47,0,0,1-.07-.66,5.07,5.07,0,0,1,.16-1.23,3,3,0,0,1,.46-1.07,2.09,2.09,0,0,1,.51-.56.74.74,0,0,1,.44-.17.56.56,0,0,1,.45.2.81.81,0,0,1,.17.52,1.11,1.11,0,0,1,0,.23,1.16,1.16,0,0,1-.1.3,2.92,2.92,0,0,1-1.39,1.57A.3.3,0,0,0,84,24a1.89,1.89,0,0,0,.13.67c.1.3.26.45.47.45a.43.43,0,0,0,.23-.05.93.93,0,0,0,.33-.24,7.36,7.36,0,0,0,1.18-1.56h0l.21-.36a.34.34,0,0,1,.23-.13.29.29,0,0,1,.21.07.27.27,0,0,1,.08.19.48.48,0,0,1-.07.24l-.27.45h0a.25.25,0,0,0,0,.07v0a8,8,0,0,1-1.09,1.38,1.94,1.94,0,0,1-.48.37l-.2.1M84.27,23a3,3,0,0,0,.85-1.16l.06-.21v0a.1.1,0,0,0-.05-.11s0,0-.09,0l-.17.1a3.69,3.69,0,0,0-.8,1.56,1,1,0,0,0,.2-.14"/><path class="cls-5" d="M87.29,26h-.07a.49.49,0,0,1-.35-.28.77.77,0,0,1-.08-.36,1,1,0,0,1,0-.27,1,1,0,0,1,.2-.41,3.57,3.57,0,0,1,.5-.62.69.69,0,0,0,.13-.11h0a.73.73,0,0,1,.09-.09l0,0-.06-.08a2,2,0,0,0-.29-.27l-.39-.3h0L87,23a4.2,4.2,0,0,1-.38-.3,1,1,0,0,1-.25-.31.74.74,0,0,1-.09-.36.81.81,0,0,1,.14-.43,1.54,1.54,0,0,1,.29-.27A3.22,3.22,0,0,1,88,20.85h.13a.86.86,0,0,1,.28,0,.45.45,0,0,1,.31.33.56.56,0,0,1,0,.2.81.81,0,0,1-.07.33.9.9,0,0,1-.17.26.26.26,0,0,1-.19.09.29.29,0,0,1-.21-.12.36.36,0,0,1-.09-.26.75.75,0,0,1,.07-.24l0,0h-.07a2.33,2.33,0,0,0-1.21.43l-.17.16s0,.05,0,.07a.19.19,0,0,0,0,.1.53.53,0,0,0,.2.19l.28.2h0a2.63,2.63,0,0,0,.24.19c.08.05.21.16.38.3a1.69,1.69,0,0,1,.34.36s0,0,0,0l0,0c.19-.14.46-.33.81-.55a3,3,0,0,1,.68-.35h.09a.34.34,0,0,1,.26.12.3.3,0,0,1,.09.35.21.21,0,0,1-.1.18.15.15,0,0,1-.17,0h-.08a.48.48,0,0,0-.19.05h0a5.86,5.86,0,0,0-.91.54l-.2.15-.06.06v0a.19.19,0,0,1,0,.08,1.64,1.64,0,0,1,0,.38,1.59,1.59,0,0,1-.32,1,1.07,1.07,0,0,1-.86.5Zm.29-.62.22-.27a1.05,1.05,0,0,0,.25-.6v0s0-.07,0-.11v0h0a3,3,0,0,0-.57.62,1,1,0,0,0-.16.32s0,.08,0,.08,0,0,0,0h.23"/></g></g></svg>